<svg width="50" height="40" fill="none" xmlns="http://www.w3.org/2000/svg"><path d="M49.782 38.303 38.406 23.438a18.124 18.124 0 0 0 3.733-6.208c.11-.31.197-.623.284-.935l.058-.207a1.054 1.054 0 0 0-.715-1.302 1.04 1.04 0 0 0-1.288.723l-.06.216c-.074.265-.147.53-.24.794a16.027 16.027 0 0 1-3.071 5.222l-6.424-8.395c.545-1.383.593-2.892.083-4.3a5.99 5.99 0 0 0-2.226-2.921l2.155-4.623A1.058 1.058 0 0 0 30.197.1a1.038 1.038 0 0 0-1.387.504l-2.157 4.627a5.911 5.911 0 0 0-1.584-.226 6.1 6.1 0 0 0-5.709 8.179c.02.054.052.1.072.153L.221 38.188a1.06 1.06 0 0 0 .18 1.478 1.033 1.033 0 0 0 1.462-.181L13.19 24.83c1.716 1.508 3.65 2.68 5.79 3.446a17.957 17.957 0 0 0 6.065 1.057c4.368 0 8.574-1.61 11.844-4.434l11.244 14.692a1.036 1.036 0 0 0 1.462.189 1.06 1.06 0 0 0 .186-1.477ZM19.677 26.292c-1.926-.69-3.664-1.752-5.203-3.122l6.126-7.923a6.075 6.075 0 0 0 1.896 1.39c.812.389 1.677.578 2.562.578 1.71 0 3.313-.74 4.448-1.966l6.11 7.986c-4.233 3.706-10.282 5.082-15.94 3.057Z" fill="#4F4F4F"/></svg>